<svg id="icons" xmlns="http://www.w3.org/2000/svg" viewBox="0 0 56 56"><title>address-book-contacts</title><g id="address-book-contacts"><path d="M8,3H48a4,4,0,0,1,4,4V49a4,4,0,0,1-4,4H8a0,0,0,0,1,0,0V3A0,0,0,0,1,8,3Z" fill="#5de0da"/><path d="M8,3H48a4,4,0,0,1,4,4V49a4,4,0,0,1-4,4H8a0,0,0,0,1,0,0V3A0,0,0,0,1,8,3Z" fill="none" stroke="#2f6aa8" stroke-linejoin="round" stroke-width="4"/><line x1="12" y1="28" x2="4" y2="28" fill="none" stroke="#2f6aa8" stroke-linecap="round" stroke-linejoin="round" stroke-width="4"/><line x1="12" y1="20" x2="4" y2="20" fill="none" stroke="#2f6aa8" stroke-linecap="round" stroke-linejoin="round" stroke-width="4"/><line x1="12" y1="12" x2="4" y2="12" fill="none" stroke="#2f6aa8" stroke-linecap="round" stroke-linejoin="round" stroke-width="4"/><line x1="12" y1="44" x2="4" y2="44" fill="none" stroke="#2f6aa8" stroke-linecap="round" stroke-linejoin="round" stroke-width="4"/><line x1="12" y1="36" x2="4" y2="36" fill="none" stroke="#2f6aa8" stroke-linecap="round" stroke-linejoin="round" stroke-width="4"/><circle cx="32" cy="20" r="7" fill="#f7f7f7"/><circle cx="32" cy="20" r="7" fill="none" stroke="#2f6aa8" stroke-linejoin="round" stroke-width="4"/><path d="M43,43V37A10,10,0,0,0,33,27H31A10,10,0,0,0,21,37v6Z" fill="#f7f7f7"/><path d="M43,43V37A10,10,0,0,0,33,27H31A10,10,0,0,0,21,37v6Z" fill="none" stroke="#2f6aa8" stroke-linecap="round" stroke-linejoin="round" stroke-width="4"/></g></svg>