<svg xmlns="http://www.w3.org/2000/svg" viewBox="0 0 128 128"><defs><style>.Graphic-Style-6{fill:#d6e1ea;}.Graphic-Style-5{fill:#fff;}.Graphic-Style-3{fill:#a6caff;}.cls-1{fill:none;stroke:rgb(9, 139, 172);stroke-linecap:round;stroke-linejoin:round;stroke-width:4px;}</style></defs><title>contacts-book</title><g id="circles"><circle class="Graphic-Style-6" cx="64" cy="64" r="54"/></g><g id="icons"><rect class="Graphic-Style-5" x="28" y="10" width="76" height="108" rx="4" ry="4"/><rect class="Graphic-Style-3" x="20" y="26" width="16" height="8" rx="4" ry="4"/><rect class="Graphic-Style-3" x="20" y="94" width="16" height="8" rx="4" ry="4"/><rect class="Graphic-Style-3" x="20" y="60" width="16" height="8" rx="4" ry="4"/><line class="cls-1" x1="28" y1="78" x2="28" y2="68"/><line class="cls-1" x1="28" y1="94" x2="28" y2="86"/><path class="cls-1" d="M28,102v12a4,4,0,0,0,4,4H58"/><path class="cls-1" d="M104,30v84a4,4,0,0,1-4,4H68"/><path class="cls-1" d="M28,26V14a4,4,0,0,1,4-4h68a4,4,0,0,1,4,4v6"/><line class="cls-1" x1="28" y1="60" x2="28" y2="34"/><rect class="cls-1" x="20" y="26" width="16" height="8" rx="4" ry="4"/><rect class="cls-1" x="20" y="94" width="16" height="8" rx="4" ry="4"/><path class="cls-1" d="M34.83,66.83A4.025,4.025,0,0,1,32,68H24a4,4,0,1,1,0-8h7"/><line class="cls-1" x1="44" y1="118" x2="44" y2="47"/><line class="cls-1" x1="44" y1="39" x2="44" y2="10"/><circle class="Graphic-Style-3" cx="74" cy="55" r="9"/><path class="Graphic-Style-3" d="M60,78c0-7.732,7-14,14-14s14,6.268,14,14c0,0-3,4-14,4S60,78,60,78Z"/><circle class="cls-1" cx="74" cy="55" r="9"/><path class="cls-1" d="M82,81.1c4.56-1.18,6-3.1,6-3.1,0-7.73-7-14-14-14S60,70.27,60,78c0,0,2.63,3.51,12,3.96"/></g></svg>